<svg xmlns="http://www.w3.org/2000/svg" width="427.815" height="328.614" viewBox="0 0 427.815 328.614">
  <g id="A" fill="#fff" stroke-miterlimit="10" opacity="0.2">
    <path d="M262.074,305.9l-14.82-83.5L125.988,206.159,73.351,269.9,1.344,256.158,220.555,4.8l59.7-1.186,93.3,323.56ZM177.653,142.936l56.438,4.623L222.846,88.445Z" stroke="none"/>
    <path d="M 375.118408203125 328.6136169433594 L 373.3810729980469 328.2808837890625 L 261.830810546875 306.91650390625 L 261.2384033203125 306.8030700683594 L 261.1267395019531 306.1706848144531 L 246.4777069091797 223.2117767333984 L 126.1544647216797 207.0215454101562 L 73.84722900390625 270.3866577148438 L 73.47171020507812 270.841552734375 L 73.02729034423828 270.7564086914062 L 0.9988722801208496 256.9613647460938 L 0.0001525035331724212 256.7700805664062 L 0.9348227977752686 255.6987152099609 L 220.0442199707031 4.546794414520264 L 220.3383941650391 4.209570407867432 L 220.7538604736328 4.201140403747559 L 280.4339904785156 2.990267753601074 L 280.8861389160156 2.981093645095825 L 280.9856262207031 3.324839115142822 L 374.6131896972656 326.8678894042969 L 375.118408203125 328.6136169433594 Z M 262.9089660644531 304.997314453125 L 372.0086059570312 325.7305908203125 L 279.6284484863281 4.238503456115723 L 220.7709350585938 5.382712364196777 L 2.688855171203613 255.5450439453125 L 73.23019409179688 268.9507141113281 L 125.465950012207 205.7288208007812 L 125.8216247558594 205.2983703613281 L 126.2720947265625 205.3583984375 L 247.4879302978516 221.5118713378906 L 248.0299072265625 221.5840759277344 L 248.1262359619141 222.1242523193359 L 262.9089660644531 304.997314453125 Z M 235.1168212890625 148.4402008056641 L 233.8660583496094 148.3370361328125 L 177.4053039550781 143.6803131103516 L 176.2590484619141 143.5857696533203 L 177.1089477539062 142.5614929199219 L 222.2831420898438 88.11801147460938 L 223.3434600830078 86.84014129638672 L 223.5973358154297 88.16849517822266 L 234.8947448730469 147.2783203125 L 235.1168212890625 148.4402008056641 Z M 179.0476989746094 142.2857360839844 L 233.0680389404297 146.6799926757812 L 222.3482208251953 90.05406188964844 L 179.0476989746094 142.2857360839844 Z" stroke="none" fill="rgba(0,0,0,0)"/>
  </g>
</svg>
