<svg xmlns="http://www.w3.org/2000/svg" width="434.892" height="329.538" viewBox="0 0 434.892 329.538">
  <g id="A" fill="#fff" stroke-miterlimit="10">
    <path d="M260.583,303.643l-12.457-83.887L127.366,200.1,72.951,262.326,1.361,246.562,227.579,1.487l59.713.5,84.134,326.065ZM180.8,138.361l56.285,6.214-9.572-59.408Z" stroke="none"/>
    <path d="M 372.9414978027344 329.5382690429688 L 371.2142333984375 329.1566772460938 L 260.3113098144531 304.6523132324219 L 259.7223205566406 304.5221862792969 L 259.6285705566406 303.8869018554688 L 247.3268432617188 220.5475158691406 L 127.5083770751953 200.9676513671875 L 73.43347930908203 262.8312072753906 L 73.04527282714844 263.2753295898438 L 72.60343170166016 263.177734375 L 0.9930093884468079 247.3551635742188 L 8.896046347217634e-05 247.1357574462891 L 0.9646250605583191 246.0912017822266 L 227.0755004882812 1.223438501358032 L 227.3790893554688 0.8946524262428284 L 227.7946624755859 0.8979527354240417 L 287.4851989746094 1.372007727622986 L 287.9374389648438 1.375599145889282 L 288.0272216796875 1.722016215324402 L 372.4857482910156 327.7790222167969 L 372.9414978027344 329.5382690429688 Z M 261.4432067871094 302.7643127441406 L 369.914306640625 326.5686340332031 L 286.6447448730469 2.597010135650635 L 227.7783660888672 2.079536199569702 L 2.722313165664673 245.9870758056641 L 72.85723876953125 261.3784484863281 L 126.8566207885742 199.656005859375 L 127.2242889404297 199.2357635498047 L 127.6728897094727 199.3085021972656 L 248.3846282958984 218.8768005371094 L 248.9243774414062 218.9642944335938 L 249.0054321289062 219.5069885253906 L 261.4432067871094 302.7643127441406 Z M 238.0808410644531 145.4850158691406 L 236.8334503173828 145.3466033935547 L 180.5265960693359 139.0981140136719 L 179.3834991455078 138.9712677001953 L 180.2619476318359 137.9714050292969 L 226.9547882080078 84.82459259033203 L 228.0507659912109 83.57715606689453 L 228.2670593261719 84.91214752197266 L 237.8916473388672 144.3173370361328 L 238.0808410644531 145.4850158691406 Z M 182.2077026367188 137.75048828125 L 236.08251953125 143.6677093505859 L 226.9652252197266 86.76171112060547 L 182.2077026367188 137.75048828125 Z" stroke="none" fill="rgba(0,0,0,0)"/>
  </g>
</svg>
