<svg xmlns="http://www.w3.org/2000/svg" width="42" height="24.496" viewBox="0 0 42 24.496">
  <path id="_36f6d4cf6d328c061a44323a197f1fd2" data-name="36f6d4cf6d328c061a44323a197f1fd2" d="M4,20.249A1.75,1.75,0,0,0,5.75,22H40.026L32.514,29.51a1.75,1.75,0,1,0,2.475,2.475l10.5-10.5A1.732,1.732,0,0,0,46,20.256v-.007a1.7,1.7,0,0,0-.137-.669,1.733,1.733,0,0,0-.378-.567l-10.5-10.5a1.75,1.75,0,1,0-2.475,2.475L40.026,18.5H5.75A1.75,1.75,0,0,0,4,20.249Z" transform="translate(-4 -8.001)" fill="#535351"/>
</svg>
