<svg xmlns="http://www.w3.org/2000/svg" xmlns:xlink="http://www.w3.org/1999/xlink" width="358" height="358" viewBox="0 0 358 358">
  <defs>
    <clipPath id="clip-path">
      <rect id="Rectangle_674" data-name="Rectangle 674" width="358" height="358" fill="#8e8e8d"/>
    </clipPath>
  </defs>
  <g id="Group_965" data-name="Group 965" transform="translate(-628.5 -6451.5)">
    <g id="Branding-Consultattion-icon" transform="translate(628.5 6451.5)" opacity="0.1">
      <g id="Group_837" data-name="Group 837" clip-path="url(#clip-path)">
        <path id="Path_675" data-name="Path 675" d="M286.886,357.386c-1.475-1.295-3.028-2.511-4.414-3.895q-58.507-58.463-116.986-116.955c-.8-.8-1.648-1.562-3.174-3a24.1,24.1,0,0,1-2.327,3.306Q107.953,288.945,55.869,341c-7.045,7.045-12.6,7.026-19.68-.053Q26.071,330.83,15.954,320.711c-6.411-6.416-6.439-12.307-.063-18.685Q68.2,249.707,120.543,197.416a23.531,23.531,0,0,1,3.322-2.313c-1.461-1.55-2.218-2.395-3.019-3.2Q62.367,133.417,3.891,74.921C2.506,73.535,1.294,71.978,0,70.5V67.01c1.213-1.392,2.346-2.862,3.647-4.166q29.574-29.623,59.2-59.2c1.3-1.3,2.773-2.436,4.166-3.647H70.5c1.564,1.372,3.209,2.66,4.677,4.127Q133.422,62.336,191.61,120.6a18.835,18.835,0,0,1,2.115,3.2l1.489-.063a20.556,20.556,0,0,1,2.178-3.18q45.11-45.191,90.328-90.275a16.423,16.423,0,0,1,6.08-3.747c14.276-4.886,28.628-9.552,42.94-14.334,2.774-.926,5.441-1.512,7.765.908,2.21,2.3,1.561,4.872.684,7.505-4.8,14.429-9.5,28.9-14.428,43.281a16.524,16.524,0,0,1-3.9,6.016q-44.934,45.12-90.03,90.08a22.609,22.609,0,0,1-3.315,2.281c1.489,1.568,2.256,2.412,3.06,3.217q58.345,58.359,116.682,116.722c1.467,1.468,2.758,3.11,4.13,4.671v3.49c-1.212,1.392-2.346,2.861-3.647,4.164q-29.574,29.624-59.2,59.2c-1.3,1.3-2.772,2.436-4.164,3.647ZM233.6,178.943l-7.417-7.418-54.6,54.633c38.909,38.9,78.038,78.03,116.943,116.93l54.876-54.881-6.836-6.638c-3.446,2.753-6.663,8.674-11.732,3.461-4.9-5.035,1.075-8.077,3.325-11.162l-7.684-8.458c-3.82,3.985-7.424,7.94-11.247,11.668-2.929,2.856-6.7,2.554-8.731-.491-1.842-2.765-1.234-5.319,1.058-7.52,3.83-3.678,7.711-7.3,11.222-10.623l-7.778-8.393c-6.687,5.782-9.2,6.651-11.755,3.565-4.49-5.426.93-8.2,3.5-11.512l-8.03-8.026c-2.822,2.955-5.778,6.064-8.752,9.156a34.658,34.658,0,0,1-2.747,2.676,5.567,5.567,0,0,1-7.6-.06,5.37,5.37,0,0,1-.115-7.812c3.881-3.977,7.991-7.728,11.581-11.167l-7.781-8.319c-6.27,5.5-8.651,6.271-11.464,3.73-2.915-2.632-2.223-5.124,3.433-12.1l-8.09-7.759c-3.3,3.451-6.64,7-10.06,10.47a10.113,10.113,0,0,1-3.284,2.508,5.074,5.074,0,0,1-6.464-1.942,5.339,5.339,0,0,1,.755-7.29c3.825-3.865,7.736-7.647,11.049-10.911l-7.291-8.38c-6.748,5.646-9.39,6.514-11.861,3.52-4.527-5.486,1.04-8.155,3.571-11.453M14.48,68.5,131.239,185.227l54.3-54.321-6.947-7.248c-3.405,2.608-6.456,8.515-11.476,3.639-5.2-5.049.762-8.265,3.241-11.433l-7.82-8.378c-3.948,4.1-7.668,8.1-11.543,11.934a5.213,5.213,0,0,1-7.02.61,5.089,5.089,0,0,1-2.009-6.445,10.229,10.229,0,0,1,2.492-3.293c3.47-3.535,7.012-7,10.228-10.193l-7.644-7.993c-3.428,2.671-6.571,8.412-11.536,3.57-5.152-5.023.794-8.255,3.095-11.242l-7.808-8.073c-3.281,3.345-6.666,6.858-10.131,10.289a9.8,9.8,0,0,1-3.318,2.451,5.073,5.073,0,0,1-6.4-2.135,5.275,5.275,0,0,1,.729-7.012c3.836-3.964,7.752-7.852,11.417-11.552l-7.557-8.014c-3.514,2.809-6.654,8.562-11.639,3.69-5.193-5.077.887-8.234,3.338-11.416l-7.782-8.305c-3.882,4-7.421,8.039-11.425,11.552a7.54,7.54,0,0,1-5.9,1.42,5.832,5.832,0,0,1-3.487-4.14,8,8,0,0,1,2.151-5.459c3.472-3.835,7.332-7.32,11.061-10.965l-7.822-7.912c-3.625,2.6-6.769,8.731-11.876,3.485-4.9-5.032,1.027-8.084,3.319-11.177l-6.476-7.21L14.48,68.5M111.22,268.658,310.205,69.714c-4.913,0-9.974.016-15.034,0-5.726-.021-7.568-1.84-7.584-7.468-.015-5.059,0-10.118,0-15.014L88.62,246.069l22.6,22.589M48.782,286.284,23.4,311.594l22.44,22.336,25.378-25.188L48.782,286.284M72.6,261.3l.885.49c-.38,2.448-.141,5.252-1.293,7.255-1.508,2.62-4.4,2.511-7.151,1.27a2.47,2.47,0,0,0-2.083.5c-2.36,2-4.613,4.131-6.412,5.768l23.99,24.1c1.323-1.365,2.8-3,4.4-4.513,1.653-1.565,2.72-2.79,1.67-5.572-1.528-4.045,2.343-7.635,6.579-6.61a16.734,16.734,0,0,1,2.185.764l7.476-6.841L79.385,254.446,72.6,261.3M298.747,58.537c7.145,0,13.859.041,20.571-.064a2.616,2.616,0,0,0,1.926-1.426c1.686-4.926,3.213-9.906,4.788-14.871l-8.8-9.312c-.079-.084-.149-.217-.246-.241-1.218-.307-2.58-1.1-3.639-.808C309.1,32.99,304.916,34.4,300.8,35.968a3.571,3.571,0,0,0-1.964,2.539c-.167,6.5-.089,13-.089,20.029" transform="translate(0 0.614)" fill="#8e8e8d"/>
      </g>
    </g>
  </g>
</svg>
