<svg xmlns="http://www.w3.org/2000/svg" width="126.857" height="47.205" viewBox="0 0 126.857 47.205">
  <g id="Way-Logo" transform="translate(0.701 0.5)">
    <g id="Group_54" data-name="Group 54" transform="translate(-0.002)">
      <path id="Union_1" data-name="Union 1" d="M20242.025,22655.146V22640l-15.5-23.646h11.484l8.922,14.135,9.057-14.135h11.24l-15.516,23.5v15.295Zm-16.9,0-3.594-8.539h-14.453l-3.639,8.539h-10.109l17.057-39.043h8l17.053,39.043Zm-14.311-17.467h6.982l-3.5-8.107Zm-32.568,17.467-7.465-21.838-7.465,21.838h-7.8L20142,22616.1h10.365l7.215,22.412,7.432-22.516h7.732l7.432,22.516,7.209-22.412h10.166l-13.459,39.043Z" transform="translate(-20142 -22616)" fill="#fff" stroke="rgba(0,0,0,0)" stroke-miterlimit="10" stroke-width="1"/>
      <rect id="Rectangle_47" data-name="Rectangle 47" width="4.836" height="4.834" transform="translate(104.799 41.871)" fill="#fff"/>
      <rect id="Rectangle_48" data-name="Rectangle 48" width="16.985" height="4.834" transform="translate(83.009 41.871)" fill="#e60019"/>
      <rect id="Rectangle_49" data-name="Rectangle 49" width="27.32" height="4.834" transform="translate(50.919 41.871)" fill="#e60019"/>
    </g>
  </g>
</svg>
