<svg id="Way-Footer-logo" xmlns="http://www.w3.org/2000/svg" width="124.204" height="46.321" viewBox="0 0 124.204 46.321">
  <path id="Path_29" data-name="Path 29" d="M3.89,2.872h6.662l8.371,26.007L27.541,2.771h5.212l8.617,26.108,8.37-26.007h6.465L44.028,38.2H38.666L30.048,12.991,21.428,38.2H16.117Z" transform="translate(-1.506 -1.072)" fill="#fff"/>
  <path id="Path_30" data-name="Path 30" d="M27.263,3.4h2.758l9.867,29.888L49.473,3.5h2.846L41.313,35.429H38.376L28.543,6.671,18.709,35.429H15.822L4.768,3.5H7.812L17.4,33.284ZM24.809,0l-7.37,22.329L10.284.1H0L13.4,38.826h7.734l7.406-21.66,7.4,21.66h7.786L57.081.1H47L39.846,22.329,32.475,0Z" fill="#fff"/>
  <path id="Path_31" data-name="Path 31" d="M102.7,2.935h5.715l15.432,35.327h-6.513l-3.561-8.468H97.185l-3.608,8.468H87.263Zm8.821,21.4L105.454,10.3,99.441,24.334Z" transform="translate(-33.766 -1.136)" fill="#fff"/>
  <path id="Path_32" data-name="Path 32" d="M103.825,13.525l3.475,8.04h-6.922ZM95.23,24.96h17.236L103.811,4.936Zm6.942-21.4h3.492l13.95,31.932h-2.791l-3.559-8.469H94.426l-3.605,8.469h-2.6ZM99.95.166,83.034,38.89h10.03l3.607-8.469h14.338l3.559,8.469H124.8L107.887.166Z" transform="translate(-32.129 -0.064)" fill="#fff"/>
  <path id="Path_33" data-name="Path 33" d="M155.8,24.591,141.872,3.346h7.314l9.771,15.486L168.88,3.346h7.065l-13.932,21.1v13.98H155.8Z" transform="translate(-54.896 -1.295)" fill="#fff"/>
  <path id="Path_34" data-name="Path 34" d="M167.823,3.972h2.983L158.331,22.859V35.652h-2.818V23.013L143.029,3.972h3.234l10.7,16.95Zm-1.856-3.4L156.983,14.6,148.137.576H136.743l15.374,23.451V39.048h9.609V23.88l15.39-23.3Z" transform="translate(-52.912 -0.223)" fill="#fff"/>
  <rect id="Rectangle_34" data-name="Rectangle 34" width="4.795" height="4.794" transform="translate(103.939 41.527)" fill="#fff"/>
  <rect id="Rectangle_35" data-name="Rectangle 35" width="16.845" height="4.794" transform="translate(82.33 41.527)" fill="#e60019"/>
  <rect id="Rectangle_36" data-name="Rectangle 36" width="27.097" height="4.794" transform="translate(50.502 41.527)" fill="#e60019"/>
</svg>
