<svg id="Way-Menu-Tab" xmlns="http://www.w3.org/2000/svg" width="25.396" height="16.931" viewBox="0 0 25.396 16.931">
  <path id="_529bd70aadfacdf20f763ea1757b3bf4" data-name="529bd70aadfacdf20f763ea1757b3bf4" d="M26.985,13.054H4.411A1.333,1.333,0,0,0,3,14.465a1.333,1.333,0,0,0,1.411,1.411H26.985A1.333,1.333,0,0,0,28.4,14.465,1.333,1.333,0,0,0,26.985,13.054ZM4.411,8.822H26.985A1.333,1.333,0,0,0,28.4,7.411,1.333,1.333,0,0,0,26.985,6H4.411A1.333,1.333,0,0,0,3,7.411,1.333,1.333,0,0,0,4.411,8.822ZM26.985,20.109H4.411a1.411,1.411,0,1,0,0,2.822H26.985a1.411,1.411,0,1,0,0-2.822Z" transform="translate(-3 -6)" fill="#fff"/>
</svg>
