<svg xmlns="http://www.w3.org/2000/svg" width="602.317" height="327.465" viewBox="0 0 602.317 327.465">
  <g id="w" fill="#fff" stroke-miterlimit="10" opacity="0.2">
    <path d="M297.55,307.283l33.82-190.429L159.26,296.425,96.572,291.5,214.859,40.282l57.136-5.852L226.862,154.484,361.16,24.859l51.279-5.266-5.521,130.766L519.083,9.123,601.87.644,381.952,313.909Z" stroke="none"/>
    <path d="M 382.1848449707031 314.1705017089844 L 381.8643493652344 314.1452941894531 L 297.44384765625 307.50439453125 L 297.1558532714844 307.4817504882812 L 297.1887817382812 307.2972106933594 L 330.9913024902344 117.5128021240234 L 159.5174102783203 296.4843139648438 L 159.3657989501953 296.642578125 L 159.1276397705078 296.6238403320312 L 96.43116760253906 291.6918640136719 L 96.21466827392578 291.6748352050781 L 96.28830718994141 291.5185852050781 L 214.6676330566406 40.31535720825195 L 214.7109680175781 40.22336959838867 L 214.9300689697266 40.20092391967773 L 272.0596313476562 34.34672927856445 L 272.223388671875 34.32994079589844 L 272.1986999511719 34.39556884765625 L 227.3809051513672 153.7516479492188 L 360.9537048339844 24.86603164672852 L 361.0307006835938 24.79177665710449 L 361.2135009765625 24.77299499511719 L 412.4851379394531 19.50491714477539 L 412.6799621582031 19.48489570617676 L 412.6770629882812 19.5537052154541 L 407.2627563476562 149.5410614013672 L 518.8273315429688 9.133365631103516 L 518.890869140625 9.053366661071777 L 519.113037109375 9.03058910369873 L 601.8843994140625 0.5488222241401672 L 602.23681640625 0.5127057433128357 L 602.1528930664062 0.6323343515396118 L 382.3160095214844 313.9835205078125 L 382.1848449707031 314.1705017089844 Z M 297.9446716308594 307.0835266113281 L 381.7189636230469 313.6482543945312 L 601.502197265625 0.774870753288269 L 519.276123046875 9.192348480224609 L 407.2081604003906 150.3777465820312 L 406.5722045898438 151.1790466308594 L 406.6058959960938 150.3921356201172 L 412.1974792480469 19.70161628723145 L 361.2890930175781 24.92716979980469 L 227.0835266113281 154.5024261474609 L 226.3416595458984 155.2187042236328 L 226.6073760986328 154.5128021240234 L 271.7660217285156 34.52995681762695 L 215.0067749023438 40.34039688110352 L 96.92983245849609 291.3315734863281 L 159.1533813476562 296.20751953125 L 331.1289367675781 116.8423538208008 L 331.7486267089844 116.1960296630859 L 331.6382751464844 116.8191452026367 L 297.9446716308594 307.0835266113281 Z" stroke="none" fill="rgba(0,0,0,0)"/>
  </g>
</svg>
