<svg xmlns="http://www.w3.org/2000/svg" width="568.172" height="347.393" viewBox="0 0 568.172 347.393">
  <g id="w" fill="#fff" stroke-miterlimit="10">
    <path d="M298.314,338.352,311.4,145.387,159.659,342.468l-62.852,1.866,90.51-262.511,56.172-11.978L211.563,194.066,331.1,50.717l50.412-10.765,8.611,130.6L486.408,18.044,567.8.688,382.938,335.839Z" stroke="none"/>
    <path d="M 383.1981506347656 336.073974609375 L 382.8768615722656 336.0834655761719 L 298.2325439453125 338.5837707519531 L 297.9437561035156 338.5923156738281 L 297.9566345214844 338.4053039550781 L 311.0990295410156 146.0827026367188 L 159.9220123291016 342.4995422363281 L 159.7883148193359 342.6732482910156 L 159.5495300292969 342.6802673339844 L 96.68680572509766 344.5371704101562 L 96.46973419189453 344.5435791015625 L 96.52608489990234 344.3802795410156 L 187.1298828125 81.87767791748047 L 187.1630554199219 81.78154754638672 L 187.3784332275391 81.73561859130859 L 243.5436859130859 69.75568389892578 L 243.7047424316406 69.72134399414062 L 243.6872711181641 69.78924560546875 L 212.0000152587891 193.2817840576172 L 330.8973388671875 50.74546813964844 L 330.9658508300781 50.66334533691406 L 331.1455383300781 50.62496185302734 L 381.5502319335938 39.85935592651367 L 381.7417907714844 39.81844329833984 L 381.746337890625 39.88716506958008 L 390.3792114257812 169.7004547119141 L 486.1541442871094 18.08218193054199 L 486.2085876464844 17.99579429626465 L 486.4271545410156 17.94919586181641 L 567.8013305664062 0.5922486782073975 L 568.1478881835938 0.5183432102203369 L 568.0773315429688 0.6463245153427124 L 383.3084716796875 335.8739318847656 L 383.1981506347656 336.073974609375 Z M 298.6850280761719 338.111328125 L 382.6787414550781 335.6050109863281 L 567.4457397460938 0.8581953644752502 L 486.6067199707031 18.09243392944336 L 390.4151000976562 170.5381011962891 L 389.8691711425781 171.4033355712891 L 389.81787109375 170.6173858642578 L 381.2854919433594 40.08592987060547 L 331.2373657226562 50.77008819580078 L 211.7853851318359 194.0602874755859 L 211.125 194.8523712158203 L 211.3130950927734 194.1219329833984 L 243.2715759277344 69.96951293945312 L 187.4697265625 81.86600494384766 L 97.14371490478516 344.1251831054688 L 159.5302429199219 342.2636108398438 L 311.1636047363281 145.4013366699219 L 311.7099304199219 144.6919708251953 L 311.6674194335938 145.3233184814453 L 298.6850280761719 338.111328125 Z" stroke="none" fill="rgba(0,0,0,0)"/>
  </g>
</svg>
