<svg id="Wa-Calendar-icon" xmlns="http://www.w3.org/2000/svg" width="13.046" height="14.909" viewBox="0 0 13.046 14.909">
  <path id="Icon_awesome-calendar-alt" data-name="Icon awesome-calendar-alt" d="M0,13.511a1.4,1.4,0,0,0,1.4,1.4h10.25a1.4,1.4,0,0,0,1.4-1.4V5.591H0ZM9.318,7.8a.35.35,0,0,1,.349-.349h1.165a.35.35,0,0,1,.349.349V8.969a.35.35,0,0,1-.349.349H9.668a.35.35,0,0,1-.349-.349Zm0,3.727a.35.35,0,0,1,.349-.349h1.165a.35.35,0,0,1,.349.349V12.7a.35.35,0,0,1-.349.349H9.668a.35.35,0,0,1-.349-.349ZM5.591,7.8a.35.35,0,0,1,.349-.349H7.105a.35.35,0,0,1,.349.349V8.969a.35.35,0,0,1-.349.349H5.94a.35.35,0,0,1-.349-.349Zm0,3.727a.35.35,0,0,1,.349-.349H7.105a.35.35,0,0,1,.349.349V12.7a.35.35,0,0,1-.349.349H5.94a.35.35,0,0,1-.349-.349ZM1.864,7.8a.35.35,0,0,1,.349-.349H3.378a.35.35,0,0,1,.349.349V8.969a.35.35,0,0,1-.349.349H2.213a.35.35,0,0,1-.349-.349Zm0,3.727a.35.35,0,0,1,.349-.349H3.378a.35.35,0,0,1,.349.349V12.7a.35.35,0,0,1-.349.349H2.213a.35.35,0,0,1-.349-.349Zm9.784-9.668h-1.4V.466A.467.467,0,0,0,9.784,0H8.852a.467.467,0,0,0-.466.466v1.4H4.659V.466A.467.467,0,0,0,4.193,0H3.261A.467.467,0,0,0,2.8.466v1.4H1.4A1.4,1.4,0,0,0,0,3.261v1.4H13.046v-1.4A1.4,1.4,0,0,0,11.648,1.864Z" transform="translate(0 0)" fill="#1d1d1b"/>
</svg>
