<svg id="Way-logo-with-slogan" xmlns="http://www.w3.org/2000/svg" xmlns:xlink="http://www.w3.org/1999/xlink" width="222.952" height="113.64" viewBox="0 0 222.952 113.64">
  <defs>
    <clipPath id="clip-path">
      <rect id="Rectangle_89" data-name="Rectangle 89" width="222.952" height="113.638" fill="#111"/>
    </clipPath>
  </defs>
  <path id="Path_68" data-name="Path 68" d="M2.9,2.244H14.856L29.882,48.927,45.353,2.064h9.354l15.47,46.864L85.2,2.244H96.807L74.946,65.658H65.321L49.85,20.409,34.379,65.658H24.844Z" transform="translate(1.384 0.986)" fill="#111"/>
  <path id="Path_69" data-name="Path 69" d="M48.939,6.1h4.95L71.6,59.746,88.8,6.277h5.109L74.16,63.6H68.887L51.236,11.976,33.58,63.6H28.4L8.559,6.277h5.464l17.2,53.469ZM44.532,0,31.3,40.083,18.461.182H0L24.058,69.693H37.94l13.3-38.882L64.527,69.693H78.5L102.462.182H84.368l-12.843,39.9L58.294,0Z" fill="#111"/>
  <path id="Path_70" data-name="Path 70" d="M92.68,2.186h10.258l27.7,63.414H118.95l-6.392-15.2H82.785L76.31,65.6H64.976ZM108.513,40.6,97.628,15.409,86.836,40.6Z" transform="translate(31.054 1.045)" fill="#111"/>
  <path id="Path_71" data-name="Path 71" d="M99.146,24.1l6.237,14.432H92.958ZM83.718,44.63h30.938L99.123,8.686ZM96.179,6.218h6.269l25.041,57.32h-5.01l-6.389-15.2H82.276l-6.47,15.2H71.137ZM92.191.123,61.827,69.635h18l6.475-15.2h25.737l6.388,15.2H136.8L106.437.123Z" transform="translate(29.549 0.059)" fill="#111"/>
  <path id="Path_72" data-name="Path 72" d="M130.638,40.628l-25-38.137h13.13l17.539,27.8,17.812-27.8H166.8L141.793,40.36V65.454H130.638Z" transform="translate(50.487 1.191)" fill="#111"/>
  <path id="Path_73" data-name="Path 73" d="M157.608,6.524h5.353L140.57,40.429V63.392h-5.057V40.7L113.1,6.524h5.805l19.2,30.428Zm-3.331-6.1L138.15,25.594,122.271.429H101.819l27.6,42.095V69.488h17.248V42.259L174.29.429Z" transform="translate(48.662 0.205)" fill="#111"/>
  <rect id="Rectangle_81" data-name="Rectangle 81" width="8.608" height="8.606" transform="translate(186.575 74.543)" fill="#111"/>
  <rect id="Rectangle_82" data-name="Rectangle 82" width="30.237" height="8.606" transform="translate(147.784 74.543)" fill="#e60019"/>
  <rect id="Rectangle_83" data-name="Rectangle 83" width="48.64" height="8.606" transform="translate(90.651 74.543)" fill="#e60019"/>
  <path id="Path_74" data-name="Path 74" d="M15.467,63.029h1.009l1.642,2.551,1.642-2.551h1.009v5.4H19.82V64.556l-1.7,2.544h-.031L16.4,64.571v3.854h-.933Z" transform="translate(7.392 30.125)" fill="#111"/>
  <path id="Path_75" data-name="Path 75" d="M21.979,63h.878l2.375,5.434h-1l-.547-1.3H21.13l-.554,1.3h-.971Zm1.357,3.291L22.4,64.137l-.925,2.158Z" transform="translate(9.37 30.111)" fill="#111"/>
  <g id="Group_90" data-name="Group 90" transform="translate(0 0.002)">
    <g id="Group_89" data-name="Group 89" clip-path="url(#clip-path)">
      <path id="Path_76" data-name="Path 76" d="M24.035,63.029h2.4A2.129,2.129,0,0,1,28,63.568a1.6,1.6,0,0,1,.446,1.165v.015a1.576,1.576,0,0,1-1.28,1.635l1.457,2.043H27.495l-1.326-1.881H24.982v1.881h-.947ZM26.37,65.7a1.252,1.252,0,0,0,.81-.247.808.808,0,0,0,.3-.655v-.016c0-.593-.369-.894-1.117-.894h-1.38V65.7Z" transform="translate(11.487 30.123)" fill="#111"/>
      <path id="Path_77" data-name="Path 77" d="M27.8,63.029h.947v2.713l2.567-2.713H32.49l-2.251,2.32,2.35,3.076H31.433L29.592,66l-.841.863v1.565H27.8Z" transform="translate(13.288 30.123)" fill="#111"/>
      <path id="Path_78" data-name="Path 78" d="M31.588,63.029h4v.848H32.535v1.4h2.706v.848H32.535v1.448h3.092v.848H31.588Z" transform="translate(15.097 30.123)" fill="#111"/>
      <path id="Path_79" data-name="Path 79" d="M36.53,63.908H34.819v-.879H39.2v.879h-1.71v4.517H36.53Z" transform="translate(16.641 30.123)" fill="#111"/>
      <rect id="Rectangle_84" data-name="Rectangle 84" width="0.949" height="5.396" transform="translate(56.892 93.153)" fill="#111"/>
      <path id="Path_80" data-name="Path 80" d="M40.109,63.029h.878l2.891,3.73v-3.73h.933v5.4h-.794l-2.975-3.838v3.838h-.933Z" transform="translate(19.17 30.123)" fill="#111"/>
      <path id="Path_81" data-name="Path 81" d="M44.6,67.745a2.7,2.7,0,0,1-.763-1.973v-.015a2.737,2.737,0,0,1,.779-1.966,2.683,2.683,0,0,1,2-.825,3.115,3.115,0,0,1,2.074.732l-.6.717a2.279,2.279,0,0,0-1.51-.578,1.606,1.606,0,0,0-1.247.563,1.937,1.937,0,0,0-.5,1.34v.016a1.954,1.954,0,0,0,.5,1.379,1.758,1.758,0,0,0,1.333.548,2.136,2.136,0,0,0,1.3-.409V66.266H46.588v-.825h2.3v2.266a3.34,3.34,0,0,1-2.249.839,2.735,2.735,0,0,1-2.035-.8" transform="translate(20.951 30.093)" fill="#111"/>
      <path id="Path_82" data-name="Path 82" d="M52.8,67.829a2.349,2.349,0,0,1-1.649.7,1.857,1.857,0,0,1-1.264-.424,1.4,1.4,0,0,1-.5-1.117v-.015a1.615,1.615,0,0,1,1.148-1.51,1.808,1.808,0,0,1-.448-1.126v-.015a1.233,1.233,0,0,1,.417-.949,1.586,1.586,0,0,1,1.134-.408,1.45,1.45,0,0,1,1.039.377,1.217,1.217,0,0,1,.395.925v.016c0,.64-.395,1.1-1.188,1.4l.925.94a8.775,8.775,0,0,0,.578-1.04l.717.378a7.6,7.6,0,0,1-.732,1.225l.856.863-.709.508Zm-.539-.554-1.2-1.225c-.477.208-.717.5-.717.894v.015a.722.722,0,0,0,.254.563.959.959,0,0,0,.647.223,1.473,1.473,0,0,0,1.018-.47m-.031-2.937v-.015a.58.58,0,0,0-.609-.609.62.62,0,0,0-.647.647v.015a1.29,1.29,0,0,0,.408.8c.563-.208.848-.486.848-.841" transform="translate(23.601 30.093)" fill="#111"/>
      <path id="Path_83" data-name="Path 83" d="M54.839,63.029h1.009L57.49,65.58l1.642-2.551h1.009v5.4h-.949V64.556L57.49,67.1h-.031l-1.688-2.529v3.854h-.933Z" transform="translate(26.209 30.123)" fill="#111"/>
      <path id="Path_84" data-name="Path 84" d="M61.351,63h.878L64.6,68.437h-1l-.548-1.3H60.5l-.554,1.3h-.971Zm1.357,3.291-.933-2.158-.925,2.158Z" transform="translate(28.187 30.111)" fill="#111"/>
      <path id="Path_85" data-name="Path 85" d="M63.408,63.029h.878l2.891,3.73v-3.73h.933v5.4h-.794L64.34,64.587v3.838h-.933Z" transform="translate(30.305 30.123)" fill="#111"/>
      <path id="Path_86" data-name="Path 86" d="M69.513,63h.878l2.375,5.434h-1l-.547-1.3H68.664l-.554,1.3h-.971Zm1.357,3.291-.933-2.158-.925,2.158Z" transform="translate(32.088 30.111)" fill="#111"/>
      <path id="Path_87" data-name="Path 87" d="M71.942,67.745a2.7,2.7,0,0,1-.763-1.973v-.015a2.737,2.737,0,0,1,.779-1.966,2.682,2.682,0,0,1,2-.825,3.115,3.115,0,0,1,2.074.732l-.6.717a2.285,2.285,0,0,0-1.512-.578,1.606,1.606,0,0,0-1.247.563,1.937,1.937,0,0,0-.5,1.34v.016a1.954,1.954,0,0,0,.5,1.379,1.758,1.758,0,0,0,1.333.548,2.136,2.136,0,0,0,1.3-.409V66.266H73.931v-.825h2.3v2.266a3.346,3.346,0,0,1-2.251.839,2.735,2.735,0,0,1-2.035-.8" transform="translate(34.019 30.093)" fill="#111"/>
      <path id="Path_88" data-name="Path 88" d="M75.427,63.029h4v.848H76.374v1.4H79.08v.848H76.374v1.448h3.092v.848H75.427Z" transform="translate(36.049 30.123)" fill="#111"/>
      <path id="Path_89" data-name="Path 89" d="M78.919,63.029h1.009l1.642,2.551,1.642-2.551h1.009v5.4h-.949V64.556l-1.7,2.544H81.54l-1.688-2.529v3.854h-.933Z" transform="translate(37.718 30.123)" fill="#111"/>
      <path id="Path_90" data-name="Path 90" d="M83.443,63.029h4v.848H84.391v1.4H87.1v.848H84.391v1.448h3.092v.848H83.443Z" transform="translate(39.88 30.123)" fill="#111"/>
      <path id="Path_91" data-name="Path 91" d="M86.935,63.029h.878L90.7,66.76v-3.73h.933v5.4h-.794l-2.975-3.838v3.838h-.933Z" transform="translate(41.549 30.123)" fill="#111"/>
      <path id="Path_92" data-name="Path 92" d="M92.034,63.908H90.323v-.879H94.7v.879H92.99v4.517h-.956Z" transform="translate(43.168 30.123)" fill="#111"/>
      <path id="Path_93" data-name="Path 93" d="M95.92,67.738a2.7,2.7,0,0,1-.786-1.966v-.015a2.733,2.733,0,0,1,.779-1.973,2.663,2.663,0,0,1,2-.817,2.938,2.938,0,0,1,2.112.839l-.609.7a2.217,2.217,0,0,0-1.51-.671,1.65,1.65,0,0,0-1.272.556,1.906,1.906,0,0,0-.508,1.348v.016a1.936,1.936,0,0,0,.5,1.348,1.658,1.658,0,0,0,1.28.563,2.251,2.251,0,0,0,1.549-.693l.609.616a2.917,2.917,0,0,1-2.189.956,2.625,2.625,0,0,1-1.958-.81" transform="translate(45.468 30.093)" fill="#111"/>
      <path id="Path_94" data-name="Path 94" d="M99.662,67.729a2.689,2.689,0,0,1-.786-1.957v-.016a2.694,2.694,0,0,1,.8-1.966,2.743,2.743,0,0,1,2.034-.825,2.739,2.739,0,0,1,2.814,2.776v.015a2.7,2.7,0,0,1-.794,1.966,2.744,2.744,0,0,1-2.035.825,2.71,2.71,0,0,1-2.028-.817m3.353-.616a1.891,1.891,0,0,0,.508-1.34v-.016a1.917,1.917,0,0,0-.516-1.357,1.828,1.828,0,0,0-2.629-.007,1.91,1.91,0,0,0-.508,1.349v.015a1.879,1.879,0,0,0,.517,1.349,1.823,1.823,0,0,0,2.628.007" transform="translate(47.256 30.093)" fill="#111"/>
      <path id="Path_95" data-name="Path 95" d="M103.469,63.029h.878l2.891,3.73v-3.73h.933v5.4h-.794L104.4,64.587v3.838h-.933Z" transform="translate(49.451 30.123)" fill="#111"/>
      <path id="Path_96" data-name="Path 96" d="M107.278,67.664l.57-.678a2.565,2.565,0,0,0,1.7.7,1.146,1.146,0,0,0,.7-.194.571.571,0,0,0,.254-.485v-.016a.554.554,0,0,0-.231-.47,3.176,3.176,0,0,0-.987-.355,3.531,3.531,0,0,1-1.326-.539,1.272,1.272,0,0,1-.47-1.072v-.015a1.414,1.414,0,0,1,.516-1.134,2.016,2.016,0,0,1,1.326-.432,3.032,3.032,0,0,1,1.958.678l-.508.717a2.475,2.475,0,0,0-1.465-.554,1.033,1.033,0,0,0-.647.185.541.541,0,0,0-.231.455v.015a.554.554,0,0,0,.253.485,3.6,3.6,0,0,0,1.033.362,3.32,3.32,0,0,1,1.295.556,1.3,1.3,0,0,1,.432,1.026v.015a1.439,1.439,0,0,1-.539,1.187,2.11,2.11,0,0,1-1.386.424,3.256,3.256,0,0,1-2.251-.863" transform="translate(51.272 30.098)" fill="#111"/>
      <path id="Path_97" data-name="Path 97" d="M111.426,67.908a2.374,2.374,0,0,1-.624-1.772V63.029h.947V66.1a1.656,1.656,0,0,0,.362,1.141,1.281,1.281,0,0,0,1,.393,1.3,1.3,0,0,0,.995-.377,1.592,1.592,0,0,0,.362-1.117V63.029h.947v3.059a2.445,2.445,0,0,1-.631,1.812,2.636,2.636,0,0,1-3.361.007" transform="translate(52.956 30.123)" fill="#111"/>
      <path id="Path_98" data-name="Path 98" d="M114.8,63.029h.947v4.533h2.838v.863H114.8Z" transform="translate(54.869 30.123)" fill="#111"/>
      <path id="Path_99" data-name="Path 99" d="M118.96,63.908h-1.711v-.879h4.378v.879h-1.71v4.517h-.956Z" transform="translate(56.037 30.123)" fill="#111"/>
      <path id="Path_100" data-name="Path 100" d="M122.48,63h.878l2.375,5.434h-1l-.548-1.3h-2.551l-.554,1.3h-.971Zm1.357,3.291-.933-2.158-.925,2.158Z" transform="translate(57.403 30.111)" fill="#111"/>
      <path id="Path_101" data-name="Path 101" d="M124.536,63.029h.878l2.891,3.73v-3.73h.933v5.4h-.794l-2.975-3.838v3.838h-.933Z" transform="translate(59.52 30.123)" fill="#111"/>
      <path id="Path_102" data-name="Path 102" d="M129.048,67.738a2.7,2.7,0,0,1-.786-1.966v-.015a2.734,2.734,0,0,1,.779-1.973,2.663,2.663,0,0,1,2-.817,2.938,2.938,0,0,1,2.112.839l-.609.7a2.217,2.217,0,0,0-1.51-.671,1.65,1.65,0,0,0-1.272.556,1.906,1.906,0,0,0-.508,1.348v.016a1.936,1.936,0,0,0,.5,1.348,1.658,1.658,0,0,0,1.28.563,2.251,2.251,0,0,0,1.549-.693l.609.616a2.917,2.917,0,0,1-2.189.956,2.624,2.624,0,0,1-1.958-.81" transform="translate(61.301 30.093)" fill="#111"/>
      <path id="Path_103" data-name="Path 103" d="M133.986,66.3l-2.143-3.268h1.125l1.5,2.381L136,63.029h1.086l-2.143,3.244v2.15h-.955Z" transform="translate(63.012 30.123)" fill="#111"/>
      <path id="Path_104" data-name="Path 104" d="M21.629,76.822H20.311a1.592,1.592,0,0,1-1.571-1.15,1.47,1.47,0,0,1-1.329.56c-1.123,0-1.843-.972-1.843-2.263,0-1.394.7-2.291,1.936-2.291,0-.01.832-.01,2.5-.01v2.947a.85.85,0,0,0,.953.953h.674ZM17.776,70.8h-1.16V69.713h1.16Zm.879,3.068V72.632H17.8c-.534,0-.927.59-.927,1.318,0,.655.374,1.2.9,1.2.553,0,.89-.514.89-1.281m.878-3.068h-1.16V69.713h1.16Z" transform="translate(7.44 33.318)" fill="#111"/>
      <path id="Path_105" data-name="Path 105" d="M20.513,77.447h-1.16V76.362h1.16Zm1.852-3.358a1.868,1.868,0,0,1-.412,1.234,1.551,1.551,0,0,1-1.281.57H19.558V74.64h.832c.44,0,.665-.309.665-.916V71.656h1.309Zm-.084,3.358H21.112V76.362h1.169Z" transform="translate(9.249 34.246)" fill="#111"/>
      <path id="Path_106" data-name="Path 106" d="M24.526,75.034a2.34,2.34,0,0,1-.655,1.861,2.871,2.871,0,0,1-1.955.542V76.38q1.292,0,1.292-1.234V71.657h1.318Z" transform="translate(10.474 34.247)" fill="#111"/>
      <rect id="Rectangle_85" data-name="Rectangle 85" width="1.309" height="6.033" transform="translate(35.955 104.107)" fill="#111"/>
      <path id="Path_107" data-name="Path 107" d="M30.6,75.894H25.9V74.641h3.395c0-1.309-.711-1.889-2.377-1.889v-1.1a5.846,5.846,0,0,1,1.75.179,2.715,2.715,0,0,1,1.936,2.8Z" transform="translate(12.378 34.247)" fill="#111"/>
      <path id="Path_108" data-name="Path 108" d="M34.441,74.938a1.445,1.445,0,0,1-.458,1.113,1.646,1.646,0,0,1-1.151.421H29.726V75.219H31.12l-1.178-4.143h1.385l1.159,4.143c.44-.009.665-.328.665-.955V70.448h1.29Z" transform="translate(14.207 33.669)" fill="#111"/>
      <rect id="Rectangle_86" data-name="Rectangle 86" width="1.309" height="6.033" transform="translate(49.602 104.107)" fill="#111"/>
      <path id="Path_109" data-name="Path 109" d="M40.61,75.713c0,1.15-.711,1.731-2.142,1.731h-.132V76.4h.084a.981.981,0,0,0,1.039-.869,1,1,0,0,1-.927.429,2.078,2.078,0,0,1-2.1-2.17,2.029,2.029,0,0,1,2.1-2.142A2.059,2.059,0,0,1,40.61,73.8ZM39.3,73.8c0-.57-.327-.972-.8-.972s-.767.393-.767.944a.862.862,0,0,0,.814.964c.467,0,.748-.365.748-.936" transform="translate(17.411 34.241)" fill="#111"/>
      <path id="Path_110" data-name="Path 110" d="M47.027,76.822H45.708a1.594,1.594,0,0,1-1.571-1.15,1.47,1.47,0,0,1-1.329.56c-1.122,0-1.842-.972-1.842-2.263,0-1.394.7-2.291,1.936-2.291,0-.01.832-.01,2.5-.01v2.947a.85.85,0,0,0,.953.953h.672ZM43.174,70.8h-1.16V69.713h1.16Zm.879,3.068V72.632h-.86c-.534,0-.927.59-.927,1.318,0,.655.375,1.2.9,1.2.551,0,.888-.514.888-1.281m.879-3.068h-1.16V69.713h1.16Z" transform="translate(19.58 33.318)" fill="#111"/>
      <path id="Path_111" data-name="Path 111" d="M45.924,77.447h-1.16V76.362h1.16Zm3.265-1.553H44.98V74.64h.86c.44,0,.655-.3.655-.9V71.656h1.318V73.7a2.765,2.765,0,0,1-.149.944h1.525Zm-1.506,1.553h-1.16V76.362h1.16Z" transform="translate(21.394 34.246)" fill="#111"/>
      <path id="Path_112" data-name="Path 112" d="M53.822,76.767h-.757a6.976,6.976,0,0,1-2.34-.346,6.967,6.967,0,0,1-2.338.346h-.851V75.514h.851a2.352,2.352,0,0,0,.767-.075,2.279,2.279,0,0,1-.607-1.533,2.332,2.332,0,0,1,.112-.711,2.109,2.109,0,0,1,2.066-1.478A2.084,2.084,0,0,1,52.793,73.2a2.379,2.379,0,0,1,.112.711,2.279,2.279,0,0,1-.607,1.533,2.437,2.437,0,0,0,.767.075h.757ZM50.427,70.9h-1.16V69.827h1.16Zm.757,3.985a1.245,1.245,0,0,0,.544-1.076,1,1,0,0,0-1-1.074.967.967,0,0,0-.748.327,1.2,1.2,0,0,0-.244.748,1.245,1.245,0,0,0,.544,1.076,2.979,2.979,0,0,0,.448.281,3.484,3.484,0,0,0,.458-.281M52.194,70.9h-1.16V69.827h1.16Z" transform="translate(22.719 33.372)" fill="#111"/>
      <path id="Path_113" data-name="Path 113" d="M52.614,77.447h-1.16V76.362h1.16Zm1.852-3.358a1.868,1.868,0,0,1-.412,1.234,1.551,1.551,0,0,1-1.281.57H51.659V74.64h.832c.44,0,.665-.309.665-.916V71.656h1.309Zm-.084,3.358H53.213V76.362h1.169Z" transform="translate(24.592 34.246)" fill="#111"/>
      <path id="Path_114" data-name="Path 114" d="M59.5,75.9H58.268q-.224,1.543-2.133,1.543H56V76.392h.112c.505,0,.805-.186.907-.551a3.247,3.247,0,0,1-.8.056,2.057,2.057,0,0,1-2.124-2.133,2.021,2.021,0,0,1,2.124-2.113,2.042,2.042,0,0,1,2.077,2.142v.851H59.5Zm-2.524-1.253v-.907a.812.812,0,0,0-.8-.907c-.5,0-.758.383-.758.879a.841.841,0,0,0,.8.936Z" transform="translate(25.85 34.244)" fill="#111"/>
      <path id="Path_115" data-name="Path 115" d="M67.2,75.894H57.561V74.641h.992c.432,0,.665-.234.665-.888v-2.1h1.318V73.7a2.727,2.727,0,0,1-.16.944h.834c.439,0,.664-.281.664-.842V71.657h1.309V73.7a2.727,2.727,0,0,1-.16.944h.834c.439,0,.664-.281.664-.842V71.657h1.318v2.029a2.618,2.618,0,0,1-.168.955H67.2Z" transform="translate(27.51 34.247)" fill="#111"/>
      <path id="Path_116" data-name="Path 116" d="M64.968,71.523h-1.16V70.447h1.16ZM68.2,76.471H63.987V75.218h.86c.439,0,.664-.3.664-.9V72.234h1.32v2.04a2.764,2.764,0,0,1-.16.944H68.2Zm-1.478-4.948h-1.16V70.447h1.16Z" transform="translate(30.496 33.668)" fill="#111"/>
      <path id="Path_117" data-name="Path 117" d="M69.455,74.666a1.861,1.861,0,0,1-.414,1.234,1.556,1.556,0,0,1-1.289.57H66.517V75.217h.964c.439,0,.664-.309.664-.916V70.448h1.311Z" transform="translate(31.791 33.669)" fill="#111"/>
      <rect id="Rectangle_87" data-name="Rectangle 87" width="1.309" height="6.033" transform="translate(102.199 104.107)" fill="#111"/>
      <path id="Path_118" data-name="Path 118" d="M79.889,74.7a1.423,1.423,0,0,1-1.58,1.543H74.923c-2.068,0-3.1-.869-3.1-2.619V72h1.29v1.627a1.2,1.2,0,0,0,.525,1.132,2.707,2.707,0,0,0,1.309.234h2.412a2.068,2.068,0,0,0,.769-.093.839.839,0,0,0,.467-.86V72.007h1.29Zm-4.264-2.694H74.456V70.922h1.169Zm1.768,0H76.224V70.922h1.169Z" transform="translate(34.329 33.895)" fill="#111"/>
      <rect id="Rectangle_88" data-name="Rectangle 88" width="1.309" height="6.033" transform="translate(115.173 104.107)" fill="#111"/>
      <path id="Path_119" data-name="Path 119" d="M82.038,75.034a2.34,2.34,0,0,1-.655,1.861,2.871,2.871,0,0,1-1.955.542V76.38q1.292,0,1.292-1.234V71.657h1.318Z" transform="translate(37.961 34.247)" fill="#111"/>
      <path id="Path_120" data-name="Path 120" d="M84.655,76.475H83.421a1.432,1.432,0,0,1-1.581-1.543v-4.49h1.309v3.807c0,.635.16.972,1.122.972h.384Z" transform="translate(39.114 33.666)" fill="#111"/>
      <path id="Path_121" data-name="Path 121" d="M93.294,76.97H83.473V75.717h1.178c.43,0,.664-.234.664-.888v-2.1h1.32v2.04a2.727,2.727,0,0,1-.16.944h.834c.439,0,.664-.281.664-.841V72.733h1.309v2.04a2.727,2.727,0,0,1-.16.944h.834c.439,0,.664-.281.664-.841V72.733h1.318v2.031a2.615,2.615,0,0,1-.168.953h1.525Zm-5-4.948H87.121V70.946H88.29Zm.86-1.543H87.99V69.4h1.16Zm.9,1.543h-1.16V70.946h1.16Z" transform="translate(39.895 33.169)" fill="#111"/>
      <path id="Path_122" data-name="Path 122" d="M91.006,71.523h-1.16V70.447h1.16Zm3.237,4.948H90.025V75.218h.86c.439,0,.664-.3.664-.9V72.234h1.318v2.04a2.8,2.8,0,0,1-.158.944h1.534Zm-1.478-4.948H91.6V70.447h1.16Z" transform="translate(42.941 33.668)" fill="#111"/>
      <path id="Path_123" data-name="Path 123" d="M92.555,75.894V74.641h1.178a.6.6,0,0,0,.609-.411,1.32,1.32,0,0,0,.056-.486V71.657h1.318V73.7a2.727,2.727,0,0,1-.16.944h.834c.439,0,.664-.281.664-.842V71.657h1.309V73.7a2.727,2.727,0,0,1-.16.944h.834c.439,0,.664-.281.664-.842V71.657h1.318v2.029a2.178,2.178,0,0,1-.683,1.711,1.829,1.829,0,0,1-1.253.5Z" transform="translate(44.235 34.247)" fill="#111"/>
      <path id="Path_124" data-name="Path 124" d="M105.352,76.472H98.991V75.219h1.4l-1.179-4.143H100.6l1.15,4.143h.123a.6.6,0,0,0,.607-.411,1.288,1.288,0,0,0,.056-.486V70.448h1.3v3.826a2.8,2.8,0,0,1-.151.944h1.666Z" transform="translate(47.311 33.669)" fill="#111"/>
      <path id="Path_125" data-name="Path 125" d="M105.841,74.666a1.861,1.861,0,0,1-.414,1.234,1.556,1.556,0,0,1-1.289.57H102.9V75.217h.964c.44,0,.665-.309.665-.916V70.448h1.309Z" transform="translate(49.181 33.669)" fill="#111"/>
      <path id="Path_126" data-name="Path 126" d="M113.337,73.3v1.1a3,3,0,0,1-.964,2.273,3.333,3.333,0,0,1-2.377.916h-.056a3.348,3.348,0,0,1-2.384-.916,2.992,2.992,0,0,1-.964-2.273V73.276H107.9v1a2.629,2.629,0,0,0,.168.981,2.168,2.168,0,0,0,3.788,0,2.345,2.345,0,0,0,.158-.72h-2.44a3.35,3.35,0,0,1,.776-2.292,2.636,2.636,0,0,1,2.066-.888h.562v1.273h-.562a1.442,1.442,0,0,0-1.253.672Zm-3.649,6.23h-1.16V78.458h1.16Zm1.768,0H110.3V78.458h1.16Z" transform="translate(50.944 34.104)" fill="#111"/>
      <path id="Path_127" data-name="Path 127" d="M114.349,70.052c-.019.486-.721.534-1.918.767a.6.6,0,0,1,.421-.411Z" transform="translate(53.735 33.48)" fill="#111"/>
      <path id="Path_128" data-name="Path 128" d="M115.938,75.713c0,1.15-.711,1.731-2.142,1.731h-.132V76.4h.084a.981.981,0,0,0,1.039-.869,1,1,0,0,1-.927.429,2.078,2.078,0,0,1-2.1-2.17,2.029,2.029,0,0,1,2.1-2.142,2.059,2.059,0,0,1,2.077,2.161ZM114.629,73.8c0-.57-.327-.972-.8-.972s-.767.393-.767.944a.862.862,0,0,0,.814.964c.467,0,.748-.365.748-.936" transform="translate(53.413 34.241)" fill="#111"/>
      <path id="Path_129" data-name="Path 129" d="M122.356,76.822h-1.318a1.592,1.592,0,0,1-1.571-1.15,1.47,1.47,0,0,1-1.329.56c-1.122,0-1.843-.972-1.843-2.263,0-1.394.7-2.291,1.936-2.291,0-.01.834-.01,2.5-.01v2.947a.851.851,0,0,0,.955.953h.672ZM118.5,70.8h-1.16V69.713h1.16Zm.879,3.068V72.632h-.86c-.534,0-.927.59-.927,1.318,0,.655.374,1.2.9,1.2.553,0,.89-.514.89-1.281m.879-3.068H119.1V69.713h1.16Z" transform="translate(55.581 33.318)" fill="#111"/>
      <path id="Path_130" data-name="Path 130" d="M126.813,76.472H120V75.219h5.387a1.951,1.951,0,0,0-1.9-1.787h-2.357l1.871-2.984h1.553l-1.178,1.778h.72c1.787.188,2.712,1.562,2.712,3.76Z" transform="translate(57.354 33.669)" fill="#111"/>
      <path id="Path_131" data-name="Path 131" d="M129.13,75.894h-1.45c-.214,1.029-1.057,1.543-2.544,1.543V76.38q1.29,0,1.29-1.234V71.657h1.318v2.984h1.385Z" transform="translate(59.807 34.247)" fill="#111"/>
      <path id="Path_132" data-name="Path 132" d="M135.968,74.763a2.036,2.036,0,0,1-1.936,2.207h-4.218v.009l-.009-.009h-2.3V75.717h1.178c.432,0,.665-.225.665-.9V72.733h1.318v2.04a2.727,2.727,0,0,1-.16.944h.834c.439,0,.664-.281.664-.841V72.733h1.309v2.04a2.728,2.728,0,0,1-.16.944h.834c.439,0,.664-.281.664-.841V72.733h1.318Zm-3.628-2.742h-1.169V70.946h1.169Zm.86-1.543h-1.16V69.4h1.16Zm.9,1.543h-1.16V70.946h1.16Z" transform="translate(60.939 33.169)" fill="#111"/>
    </g>
  </g>
</svg>
