<svg id="Way-News-Admin-Icon" xmlns="http://www.w3.org/2000/svg" width="20.559" height="20.559" viewBox="0 0 20.559 20.559">
  <path id="Icon_material-account-circle" data-name="Icon material-account-circle" d="M13.28,3a10.28,10.28,0,1,0,10.28,10.28A10.283,10.283,0,0,0,13.28,3Zm0,3.084A3.084,3.084,0,1,1,10.2,9.168,3.08,3.08,0,0,1,13.28,6.084Zm0,14.6a7.4,7.4,0,0,1-6.168-3.31c.031-2.046,4.112-3.166,6.168-3.166s6.137,1.12,6.168,3.166A7.4,7.4,0,0,1,13.28,20.681Z" transform="translate(-3 -3)" fill="#1d1d1b"/>
</svg>
