<svg id="Way-Profile0icon" xmlns="http://www.w3.org/2000/svg" width="18.719" height="18.719" viewBox="0 0 18.719 18.719">
  <path id="Icon_material-account-circle" data-name="Icon material-account-circle" d="M12.359,3a9.359,9.359,0,1,0,9.359,9.359A9.363,9.363,0,0,0,12.359,3Zm0,2.808A2.808,2.808,0,1,1,9.552,8.616,2.8,2.8,0,0,1,12.359,5.808Zm0,13.29a6.739,6.739,0,0,1-5.616-3.014c.028-1.863,3.744-2.883,5.616-2.883s5.588,1.02,5.616,2.883A6.739,6.739,0,0,1,12.359,19.1Z" transform="translate(-3 -3)" fill="#1d1d1b"/>
</svg>
