<svg id="Way-News-More-Arrow" xmlns="http://www.w3.org/2000/svg" width="18.023" height="10.512" viewBox="0 0 18.023 10.512">
  <path id="_36f6d4cf6d328c061a44323a197f1fd2" data-name="36f6d4cf6d328c061a44323a197f1fd2" d="M4,13.257a.751.751,0,0,0,.751.751H19.459l-3.223,3.223A.751.751,0,1,0,17.3,18.293L21.8,13.787a.743.743,0,0,0,.219-.527v0a.731.731,0,0,0-.059-.287.743.743,0,0,0-.162-.243L17.3,8.221a.751.751,0,1,0-1.062,1.062l3.225,3.223H4.751A.751.751,0,0,0,4,13.257Z" transform="translate(-4 -8.001)" fill="#1d1d1b"/>
</svg>
