<svg id="Way-Adress-Icon" xmlns="http://www.w3.org/2000/svg" width="15.364" height="16.218" viewBox="0 0 15.364 16.218">
  <path id="Way-Location-Icon" d="M14.743,10.682V5.561L12.182,3,9.621,5.561V7.268H4.5v11.95H19.864V10.682ZM7.914,17.511H6.207V15.8H7.914Zm0-3.414H6.207V12.389H7.914Zm0-3.414H6.207V8.975H7.914Zm5.121,6.829H11.329V15.8h1.707Zm0-3.414H11.329V12.389h1.707Zm0-3.414H11.329V8.975h1.707Zm0-3.414H11.329V5.561h1.707Zm5.121,10.243H16.45V15.8h1.707Zm0-3.414H16.45V12.389h1.707Z" transform="translate(-4.5 -3)" fill="#e60019"/>
</svg>
