<svg id="Way-footer-location-icon" xmlns="http://www.w3.org/2000/svg" width="46.049" height="73.679" viewBox="0 0 46.049 73.679">
  <path id="Icon_metro-location" data-name="Icon metro-location" d="M31.379,1.928A23.024,23.024,0,0,0,8.355,24.953c0,23.025,23.025,50.654,23.025,50.654S54.4,47.977,54.4,24.953A23.025,23.025,0,0,0,31.379,1.928Zm0,37.127a14.1,14.1,0,1,1,14.1-14.1A14.1,14.1,0,0,1,31.379,39.055Zm-8.922-14.1a8.922,8.922,0,1,1,8.922,8.922A8.922,8.922,0,0,1,22.457,24.953Z" transform="translate(-8.355 -1.928)" fill="#f4f4f4" opacity="0.2"/>
</svg>
