<svg id="Way-Location-icon" xmlns="http://www.w3.org/2000/svg" xmlns:xlink="http://www.w3.org/1999/xlink" width="80" height="80" viewBox="0 0 80 80">
  <defs>
    <clipPath id="clip-path">
      <rect id="Rectangle_419" data-name="Rectangle 419" width="80" height="80" fill="#1d1d1b"/>
    </clipPath>
  </defs>
  <g id="Group_428" data-name="Group 428" clip-path="url(#clip-path)">
    <path id="Path_443" data-name="Path 443" d="M19.125,12.622a4.221,4.221,0,1,0,4.219,4.219,4.226,4.226,0,0,0-4.219-4.219" transform="translate(21.05 17.829)" fill="#1d1d1b"/>
    <path id="Path_444" data-name="Path 444" d="M40,0A40,40,0,1,0,80,40,40,40,0,0,0,40,0m3.344,60.671a4.156,4.156,0,0,1-6.335,0c-5.081-5.988-14.489-18.036-14.489-25.152a17.656,17.656,0,1,1,35.311,0c0,7.117-9.406,19.165-14.487,25.152" transform="translate(0 0)" fill="#1d1d1b"/>
  </g>
</svg>
