<svg id="Way-Phone-Icon" xmlns="http://www.w3.org/2000/svg" width="15.364" height="15.364" viewBox="0 0 15.364 15.364">
  <path id="Way-Phone-Icon-2" data-name="Way-Phone-Icon" d="M.557.738,3.678.018A.725.725,0,0,1,4.5.435L5.944,3.8a.718.718,0,0,1-.207.84L3.918,6.124a11.121,11.121,0,0,0,5.317,5.317l1.488-1.818a.719.719,0,0,1,.84-.207l3.361,1.44a.729.729,0,0,1,.42.828l-.72,3.121a.72.72,0,0,1-.7.558A13.922,13.922,0,0,1,0,1.44.719.719,0,0,1,.557.738Z" transform="translate(0.001 0.001)" fill="#e60019"/>
</svg>
