<svg id="Way-invoice-icon" xmlns="http://www.w3.org/2000/svg" width="15.364" height="20.486" viewBox="0 0 15.364 20.486">
  <path id="Icon_awesome-file-invoice" data-name="Icon awesome-file-invoice" d="M11.523,10.243H3.841V12.8h7.682ZM15.084,4.2,11.167.28a.96.96,0,0,0-.68-.28h-.244V5.121h5.121V4.877A.957.957,0,0,0,15.084,4.2ZM8.962,5.442V0h-8A.958.958,0,0,0,0,.96V19.525a.958.958,0,0,0,.96.96H14.4a.958.958,0,0,0,.96-.96V6.4H9.923A.963.963,0,0,1,8.962,5.442Zm-6.4-2.561a.32.32,0,0,1,.32-.32h3.2a.32.32,0,0,1,.32.32v.64a.32.32,0,0,1-.32.32h-3.2a.32.32,0,0,1-.32-.32Zm0,2.561a.32.32,0,0,1,.32-.32h3.2a.32.32,0,0,1,.32.32v.64a.32.32,0,0,1-.32.32h-3.2a.32.32,0,0,1-.32-.32ZM12.8,17.6a.32.32,0,0,1-.32.32h-3.2a.32.32,0,0,1-.32-.32v-.64a.32.32,0,0,1,.32-.32h3.2a.32.32,0,0,1,.32.32Zm0-8v3.841a.64.64,0,0,1-.64.64H3.2a.64.64,0,0,1-.64-.64V9.6a.64.64,0,0,1,.64-.64h8.962A.64.64,0,0,1,12.8,9.6Z" fill="#e60019"/>
</svg>
