<svg xmlns="http://www.w3.org/2000/svg" width="532.175" height="277.45" viewBox="0 0 532.175 277.45">
  <g id="y" fill="#fff" stroke-miterlimit="10">
    <path d="M167.426,226.575l38.259-103.425L117.068.826H214.2l62.5,70.381L391.987.826H523.151L316.132,130.073l-26.51,113.012Z" stroke="none"/>
    <path d="M 290.9242248535156 244.6663513183594 L 289.3025207519531 244.4459686279297 L 166.9655456542969 227.8216552734375 L 165.5600738525391 227.6306762695312 L 166.0225372314453 226.3857879638672 L 204.270263671875 123.4328536987305 L 116.1096343994141 1.263992667198181 L 115.3182220458984 0.1672635823488235 L 117.4370193481445 0.1664019078016281 L 214.4960021972656 0.1269281208515167 L 214.9893341064453 0.1267275214195251 L 215.2071990966797 0.3711688816547394 L 277.1245727539062 69.85040283203125 L 391.0892944335938 0.32027468085289 L 391.5242309570312 0.05493104085326195 L 392.1184692382812 0.05468931049108505 L 523.1375122070312 0.001404067035764456 L 526.4754638671875 4.648270987672731e-05 L 524.272216796875 1.376660823822021 L 317.4856262207031 130.579345703125 L 291.2414245605469 243.3036193847656 L 290.9242248535156 244.6663513183594 Z M 169.2912139892578 225.5213775634766 L 288.3254089355469 241.5106964111328 L 314.686767578125 129.9704437255859 L 314.7818298339844 129.568115234375 L 315.220458984375 129.2945251464844 L 519.8287353515625 1.65047562122345 L 392.451904296875 1.598547577857971 L 277.4977111816406 71.82747650146484 L 276.2857055664062 72.56793975830078 L 275.5574340820312 71.7449951171875 L 213.4119110107422 1.52555775642395 L 118.8258666992188 1.486997604370117 L 206.8825225830078 122.5658874511719 L 207.1023559570312 122.8681869506836 L 206.9646301269531 123.2421035766602 L 169.2912139892578 225.5213775634766 Z" stroke="none" fill="rgba(0,0,0,0)"/>
  </g>
</svg>
