<svg xmlns="http://www.w3.org/2000/svg" width="525.654" height="239.77" viewBox="0 0 525.654 239.77">
  <g id="y" fill="#fff" stroke-miterlimit="10" opacity="0.2">
    <path d="M150.963,221.845l54.746-92.27L146.55,30.027l89.907-6.955,44.7,56.451,119.862-69.18L522.422.953,306.645,127.659l-45.663,99.728Z" stroke="none"/>
    <path d="M 261.8916931152344 228.663330078125 L 260.4317932128906 228.5886840820312 L 150.3033447265625 222.9567108154297 L 149.0381011962891 222.8920288085938 L 149.6988830566406 221.7812347412109 L 204.345947265625 129.9203033447266 L 145.5804595947266 30.47549057006836 L 145.0529174804688 29.5827522277832 L 147.0142669677734 29.43030738830566 L 236.8601684570312 22.44691276550293 L 237.3168487548828 22.41142082214355 L 237.4727783203125 22.60742950439453 L 281.7964782714844 78.31982421875 L 400.2801208496094 9.970580101013184 L 400.7322387695312 9.709746360778809 L 401.2823791503906 9.666985511779785 L 522.5645751953125 0.2401698231697083 L 525.6544799804688 2.538305807320285e-06 L 523.3577880859375 1.349433898925781 L 307.8030700683594 128.0007781982422 L 262.4400634765625 227.4609985351562 L 261.8916931152344 228.663330078125 Z M 152.8859710693359 220.7989044189453 L 260.0761108398438 226.11767578125 L 305.3262634277344 127.6740798950195 L 305.489501953125 127.3189926147461 L 305.9465942382812 127.0507431030273 L 519.1936645507812 1.904612421989441 L 401.3023681640625 10.97957706451416 L 281.7722778320312 80.00456237792969 L 280.5120239257812 80.73233795166016 L 279.99169921875 80.07209014892578 L 235.5952606201172 23.73527526855469 L 148.0529327392578 30.47405815124512 L 206.9259490966797 128.9827880859375 L 207.0729064941406 129.2287292480469 L 206.8755340576172 129.5622863769531 L 152.8859710693359 220.7989044189453 Z" stroke="none" fill="rgba(0,0,0,0)"/>
  </g>
</svg>
